<svg width="51" height="50" viewBox="0 0 51 50" fill="none" xmlns="http://www.w3.org/2000/svg">
<path d="M25.7769 12.1726C18.6784 12.1726 12.9495 17.9015 12.9495 25C12.9495 32.0985 18.6784 37.8274 25.7769 37.8274C32.8755 37.8274 38.6044 32.0985 38.6044 25C38.6044 17.9015 32.8755 12.1726 25.7769 12.1726ZM25.7769 33.3369C21.1863 33.3369 17.4401 29.5906 17.4401 25C17.4401 20.4094 21.1863 16.6631 25.7769 16.6631C30.3676 16.6631 34.1138 20.4094 34.1138 25C34.1138 29.5906 30.3676 33.3369 25.7769 33.3369ZM39.1297 8.65771C37.4724 8.65771 36.1339 9.99611 36.1339 11.6535C36.1339 13.3109 37.4724 14.6493 39.1297 14.6493C40.7871 14.6493 42.1255 13.3171 42.1255 11.6535C42.126 11.2599 42.0488 10.8702 41.8985 10.5065C41.7481 10.1428 41.5274 9.81233 41.2492 9.53405C40.9709 9.25577 40.6404 9.03512 40.2767 8.88474C39.9131 8.73437 39.5233 8.65721 39.1297 8.65771ZM50.7813 25C50.7813 21.5477 50.8126 18.1266 50.6187 14.6805C50.4249 10.6778 49.5117 7.12542 46.5848 4.19845C43.6515 1.26521 40.1054 0.358351 36.1027 0.16447C32.6503 -0.0294109 29.2293 0.00186028 25.7832 0.00186028C22.3309 0.00186028 18.9098 -0.0294109 15.4637 0.16447C11.461 0.358351 7.90863 1.27147 4.98165 4.19845C2.04842 7.13168 1.14155 10.6778 0.947673 14.6805C0.753792 18.1329 0.785063 21.5539 0.785063 25C0.785063 28.4461 0.753792 31.8734 0.947673 35.3195C1.14155 39.3222 2.05467 42.8746 4.98165 45.8016C7.91488 48.7348 11.461 49.6417 15.4637 49.8355C18.9161 50.0294 22.3371 49.9981 25.7832 49.9981C29.2355 49.9981 32.6566 50.0294 36.1027 49.8355C40.1054 49.6417 43.6578 48.7285 46.5848 45.8016C49.518 42.8683 50.4249 39.3222 50.6187 35.3195C50.8189 31.8734 50.7813 28.4523 50.7813 25ZM45.2776 39.7475C44.8211 40.8857 44.2707 41.7363 43.3889 42.6119C42.507 43.4937 41.6627 44.0441 40.5244 44.5007C37.2347 45.8078 29.4232 45.5139 25.7769 45.5139C22.1307 45.5139 14.313 45.8078 11.0232 44.5069C9.88496 44.0504 9.03439 43.5 8.1588 42.6182C7.27695 41.7363 6.72658 40.892 6.27002 39.7537C4.96914 36.4577 5.26309 28.6462 5.26309 25C5.26309 21.3538 4.96914 13.536 6.27002 10.2463C6.72658 9.10801 7.27695 8.25744 8.1588 7.38185C9.04064 6.50626 9.88496 5.94963 11.0232 5.49307C14.313 4.19219 22.1307 4.48614 25.7769 4.48614C29.4232 4.48614 37.2409 4.19219 40.5307 5.49307C41.6689 5.94963 42.5195 6.5 43.3951 7.38185C44.277 8.26369 44.8273 9.10801 45.2839 10.2463C46.5848 13.536 46.2908 21.3538 46.2908 25C46.2908 28.6462 46.5848 36.4577 45.2776 39.7475Z" fill="white"/>
</svg>
