<svg width="63" height="50" viewBox="0 0 63 50" fill="none" xmlns="http://www.w3.org/2000/svg">
<path d="M62.2896 5.93091C60.0278 6.93316 57.598 7.61035 55.0437 7.91645C57.6793 6.33938 59.6511 3.85725 60.5912 0.933223C58.115 2.40406 55.4049 3.43937 52.5787 3.99414C50.6781 1.9649 48.1608 0.619889 45.4175 0.167923C42.6743 -0.284042 39.8585 0.182327 37.4075 1.49462C34.9564 2.80692 33.0072 4.89172 31.8624 7.42536C30.7176 9.95899 30.4413 12.7997 31.0764 15.5064C26.0589 15.2545 21.1505 13.9504 16.6696 11.6787C12.1887 9.40698 8.23559 6.21848 5.06675 2.32012C3.98324 4.18917 3.36022 6.35619 3.36022 8.66407C3.35902 10.7417 3.87065 12.7875 4.84972 14.6199C5.8288 16.4524 7.24505 18.0149 8.97281 19.1687C6.96906 19.1049 5.00952 18.5635 3.25729 17.5895V17.752C3.25709 20.6659 4.26504 23.4902 6.11013 25.7456C7.95521 28.001 10.5238 29.5485 13.38 30.1257C11.5212 30.6288 9.57236 30.7029 7.68072 30.3424C8.48657 32.8497 10.0563 35.0422 12.1702 36.613C14.284 38.1838 16.8362 39.0543 19.4693 39.1026C14.9994 42.6116 9.47904 44.515 3.79634 44.5066C2.78971 44.5069 1.78392 44.4481 0.78418 44.3305C6.55245 48.0393 13.2671 50.0076 20.1248 50C43.339 50 56.0296 30.7731 56.0296 14.0979C56.0296 13.5561 56.0161 13.0089 55.9917 12.4672C58.4602 10.682 60.591 8.47146 62.2842 5.93904L62.2896 5.93091Z" fill="white"/>
</svg>
