<svg width="65" height="50" viewBox="0 0 65 50" fill="none" xmlns="http://www.w3.org/2000/svg">
<path d="M62.5898 8.39042C62.3275 7.33826 61.8139 6.3654 61.0932 5.55521C60.3725 4.74502 59.4661 4.12167 58.4516 3.73859C48.6914 -0.0285329 33.1092 6.35775e-06 32.253 6.35775e-06C31.3969 6.35775e-06 15.8147 -0.0285329 6.05439 3.73859C5.03995 4.12167 4.13353 4.74502 3.41281 5.55521C2.69209 6.3654 2.17857 7.33826 1.91626 8.39042C1.17425 11.2158 0.289551 16.4098 0.289551 25C0.289551 33.5902 1.17425 38.7842 1.91626 41.6096C2.17857 42.6617 2.69209 43.6346 3.41281 44.4448C4.13353 45.255 5.03995 45.8783 6.05439 46.2614C15.4151 49.8858 30.0841 50 32.0532 50H32.4528C34.422 50 49.0909 49.8858 58.4516 46.2614C59.4661 45.8783 60.3725 45.255 61.0932 44.4448C61.8139 43.6346 62.3275 42.6617 62.5898 41.6096C63.3318 38.7842 64.2165 33.5902 64.2165 25C64.2165 16.4098 63.3318 11.2158 62.5898 8.39042ZM42.0133 25.9418L28.3147 35.0742C28.133 35.2079 27.9123 35.2781 27.6868 35.274C27.4978 35.2669 27.3126 35.2182 27.1446 35.1313C26.9622 35.0364 26.8096 34.8928 26.7038 34.7165C26.598 34.5402 26.5431 34.338 26.5453 34.1324V15.8676C26.5431 15.662 26.598 15.4598 26.7038 15.2835C26.8096 15.1072 26.9622 14.9636 27.1446 14.8687C27.3266 14.7716 27.5315 14.7257 27.7375 14.7357C27.9435 14.7458 28.143 14.8115 28.3147 14.9258L42.0133 24.0582C42.1725 24.1585 42.3036 24.2974 42.3945 24.4621C42.4855 24.6268 42.5331 24.8119 42.5331 25C42.5331 25.1881 42.4855 25.3732 42.3945 25.5379C42.3036 25.7026 42.1725 25.8415 42.0133 25.9418Z" fill="white"/>
</svg>
